<?xml version="1.0" standalone="no"?>
<!DOCTYPE svg PUBLIC "-//W3C//DTD SVG 20010904//EN"
 "http://www.w3.org/TR/2001/REC-SVG-20010904/DTD/svg10.dtd">
<svg version="1.0" xmlns="http://www.w3.org/2000/svg"
 width="200.000000pt" height="200.000000pt" viewBox="0 0 200.000000 200.000000"
 preserveAspectRatio="xMidYMid meet">
<metadata>
Created by potrace 1.16, written by Peter Selinger 2001-2019
</metadata>
<g transform="translate(0.000000,200.000000) scale(0.100000,-0.100000)"
fill="#000000" stroke="none">
<path d="M900 1646 c-142 -41 -234 -138 -261 -274 -32 -170 45 -329 193 -398
56 -26 74 -29 163 -29 89 0 107 3 162 29 73 33 140 100 174 172 19 40 23 66
23 149 1 88 -2 107 -26 156 -55 118 -174 197 -310 204 -43 3 -91 -1 -118 -9z
m203 -176 l97 -55 0 -122 0 -122 -72 -42 c-40 -23 -86 -50 -103 -59 l-30 -18
-103 60 -103 60 3 122 3 121 100 57 c55 32 102 57 106 56 3 -2 49 -28 102 -58z"/>
<path d="M111 757 c-17 -17 -15 -202 3 -216 21 -18 34 7 38 74 l3 59 25 -37
c14 -20 30 -37 37 -37 7 0 24 16 39 35 14 19 30 35 34 35 4 0 8 -27 9 -61 1
-62 5 -79 22 -79 12 0 12 227 0 235 -11 6 -44 -26 -72 -72 -12 -18 -24 -33
-29 -33 -4 0 -23 22 -41 50 -38 54 -51 64 -68 47z"/>
<path d="M493 762 c-17 -11 -111 -205 -106 -219 7 -19 27 -16 41 7 10 17 23
20 76 20 55 0 66 -3 79 -22 12 -19 18 -21 28 -10 11 10 4 31 -36 113 -53 107
-64 122 -82 111z"/>
<path d="M675 758 c-3 -8 -4 -61 -3 -119 2 -84 6 -104 18 -104 9 0 17 12 20
30 3 17 11 39 17 50 12 19 15 17 61 -34 30 -33 53 -51 60 -47 19 12 14 25 -30
77 l-42 50 37 37 c39 40 45 57 23 65 -7 3 -34 -16 -62 -44 -26 -27 -52 -49
-56 -49 -4 0 -8 21 -10 47 -3 45 -22 69 -33 41z"/>
<path d="M977 762 l-68 -3 3 -112 3 -112 80 0 c67 0 80 3 83 17 3 14 -7 17
-60 20 -60 3 -63 4 -63 28 0 23 4 25 53 28 44 3 53 6 50 20 -2 12 -17 18 -53
22 -42 4 -51 9 -53 27 -3 20 1 22 55 25 44 2 59 7 61 19 4 22 -9 25 -91 21z"/>
<path d="M1455 761 c-34 -15 -57 -49 -62 -93 -10 -89 42 -143 130 -135 114 10
152 144 62 215 -29 23 -91 29 -130 13z m90 -48 c33 -16 35 -20 35 -63 0 -43
-3 -48 -34 -65 -33 -18 -34 -18 -67 1 -29 17 -34 26 -37 61 -3 36 0 43 30 62
40 25 30 24 73 4z"/>
<path d="M1693 763 c-27 -11 -12 -32 25 -35 l37 -3 5 -95 c4 -76 8 -95 20 -95
12 0 16 18 18 90 3 95 8 105 55 105 30 0 38 24 11 34 -19 7 -153 7 -171 -1z"/>
<path d="M1142 648 l3 -113 73 -3 c66 -3 74 -1 97 22 28 28 33 67 10 86 -11 9
-14 22 -9 47 11 56 -14 73 -103 73 l-74 0 3 -112z"/>
</g>
</svg>
